{
	"asset":{
		"generator":"Khronos glTF Blender I/O v3.6.28",
		"version":"2.0"
	},
	"extensionsUsed":[
		"KHR_lights_punctual"
	],
	"extensionsRequired":[
		"KHR_lights_punctual"
	],
	"extensions":{
		"KHR_lights_punctual":{
			"lights":[
				{
					"color":[
						1,
						0.09783217310905457,
						0
					],
					"intensity":27175.70653294113,
					"type":"point",
					"name":"Point.001"
				}
			]
		}
	},
	"scene":0,
	"scenes":[
		{
			"name":"Scene",
			"nodes":[
				1
			]
		}
	],
	"nodes":[
		{
			"extensions":{
				"KHR_lights_punctual":{
					"light":0
				}
			},
			"name":"explosion_light",
			"rotation":[
				-0.7071068286895752,
				0,
				0,
				0.7071068286895752
			],
			"scale":[
				2,
				1.999999761581421,
				1.1999999284744263
			],
			"translation":[
				-7.62939453125e-06,
				0.5349752306938171,
				0
			]
		},
		{
			"children":[
				0
			],
			"mesh":0,
			"name":"Explosion",
			"scale":[
				0.35175418853759766,
				0.35175418853759766,
				0.35175418853759766
			],
			"translation":[
				0,
				0.22598469257354736,
				0
			]
		}
	],
	"animations":[
		{
			"channels":[
				{
					"sampler":0,
					"target":{
						"node":1,
						"path":"translation"
					}
				},
				{
					"sampler":1,
					"target":{
						"node":1,
						"path":"rotation"
					}
				},
				{
					"sampler":2,
					"target":{
						"node":1,
						"path":"scale"
					}
				}
			],
			"name":"explosion_scale",
			"samplers":[
				{
					"input":4,
					"interpolation":"LINEAR",
					"output":5
				},
				{
					"input":6,
					"interpolation":"STEP",
					"output":7
				},
				{
					"input":4,
					"interpolation":"LINEAR",
					"output":8
				}
			]
		},
		{
			"channels":[
				{
					"sampler":0,
					"target":{
						"node":0,
						"path":"translation"
					}
				},
				{
					"sampler":1,
					"target":{
						"node":0,
						"path":"rotation"
					}
				},
				{
					"sampler":2,
					"target":{
						"node":0,
						"path":"scale"
					}
				}
			],
			"name":"explosion_lightAction",
			"samplers":[
				{
					"input":9,
					"interpolation":"LINEAR",
					"output":10
				},
				{
					"input":11,
					"interpolation":"STEP",
					"output":12
				},
				{
					"input":11,
					"interpolation":"STEP",
					"output":13
				}
			]
		}
	],
	"materials":[
		{
			"doubleSided":true,
			"name":"Material.002",
			"pbrMetallicRoughness":{
				"baseColorTexture":{
					"index":0
				},
				"metallicFactor":0,
				"roughnessFactor":0.5
			}
		}
	],
	"meshes":[
		{
			"name":"Plane.006",
			"primitives":[
				{
					"attributes":{
						"POSITION":0,
						"NORMAL":1,
						"TEXCOORD_0":2
					},
					"indices":3,
					"material":0
				}
			]
		}
	],
	"textures":[
		{
			"sampler":0,
			"source":0
		}
	],
	"images":[
		{
			"mimeType":"image/png",
			"name":"fire1",
			"uri":"fire1.png"
		}
	],
	"accessors":[
		{
			"bufferView":0,
			"componentType":5126,
			"count":128,
			"max":[
				0.4013831317424774,
				0.24082989990711212,
				0.4013831615447998
			],
			"min":[
				-0.4013831317424774,
				-0.24082989990711212,
				-0.4013831615447998
			],
			"type":"VEC3"
		},
		{
			"bufferView":1,
			"componentType":5126,
			"count":128,
			"type":"VEC3"
		},
		{
			"bufferView":2,
			"componentType":5126,
			"count":128,
			"type":"VEC2"
		},
		{
			"bufferView":3,
			"componentType":5123,
			"count":192,
			"type":"SCALAR"
		},
		{
			"bufferView":4,
			"componentType":5126,
			"count":23,
			"max":[
				0.36666666666666664
			],
			"min":[
				0
			],
			"type":"SCALAR"
		},
		{
			"bufferView":5,
			"componentType":5126,
			"count":23,
			"type":"VEC3"
		},
		{
			"bufferView":6,
			"componentType":5126,
			"count":2,
			"max":[
				0.36666666666666664
			],
			"min":[
				0
			],
			"type":"SCALAR"
		},
		{
			"bufferView":7,
			"componentType":5126,
			"count":2,
			"type":"VEC4"
		},
		{
			"bufferView":8,
			"componentType":5126,
			"count":23,
			"type":"VEC3"
		},
		{
			"bufferView":9,
			"componentType":5126,
			"count":21,
			"max":[
				0.3333333333333333
			],
			"min":[
				0
			],
			"type":"SCALAR"
		},
		{
			"bufferView":10,
			"componentType":5126,
			"count":21,
			"type":"VEC3"
		},
		{
			"bufferView":11,
			"componentType":5126,
			"count":2,
			"max":[
				0.3333333333333333
			],
			"min":[
				0
			],
			"type":"SCALAR"
		},
		{
			"bufferView":12,
			"componentType":5126,
			"count":2,
			"type":"VEC4"
		},
		{
			"bufferView":13,
			"componentType":5126,
			"count":2,
			"type":"VEC3"
		}
	],
	"bufferViews":[
		{
			"buffer":0,
			"byteLength":1536,
			"byteOffset":0,
			"target":34962
		},
		{
			"buffer":0,
			"byteLength":1536,
			"byteOffset":1536,
			"target":34962
		},
		{
			"buffer":0,
			"byteLength":1024,
			"byteOffset":3072,
			"target":34962
		},
		{
			"buffer":0,
			"byteLength":384,
			"byteOffset":4096,
			"target":34963
		},
		{
			"buffer":0,
			"byteLength":92,
			"byteOffset":4480
		},
		{
			"buffer":0,
			"byteLength":276,
			"byteOffset":4572
		},
		{
			"buffer":0,
			"byteLength":8,
			"byteOffset":4848
		},
		{
			"buffer":0,
			"byteLength":32,
			"byteOffset":4856
		},
		{
			"buffer":0,
			"byteLength":276,
			"byteOffset":4888
		},
		{
			"buffer":0,
			"byteLength":84,
			"byteOffset":5164
		},
		{
			"buffer":0,
			"byteLength":252,
			"byteOffset":5248
		},
		{
			"buffer":0,
			"byteLength":8,
			"byteOffset":5500
		},
		{
			"buffer":0,
			"byteLength":32,
			"byteOffset":5508
		},
		{
			"buffer":0,
			"byteLength":24,
			"byteOffset":5540
		}
	],
	"samplers":[
		{
			"magFilter":9729,
			"minFilter":9987
		}
	],
	"buffers":[
		{
			"byteLength":5564,
			"uri":"explosion.bin"
		}
	]
}
