{
	"asset":{
		"generator":"Khronos glTF Blender I/O v3.6.28",
		"version":"2.0"
	},
	"extensionsUsed":[
		"KHR_materials_specular",
		"KHR_materials_ior"
	],
	"scene":0,
	"scenes":[
		{
			"name":"Scene",
			"nodes":[
				2,
				3
			]
		}
	],
	"nodes":[
		{
			"mesh":0,
			"name":"bvUpper",
			"scale":[
				1.0140846967697144,
				1.0140846967697144,
				1.0140846967697144
			]
		},
		{
			"children":[
				0
			],
			"mesh":1,
			"name":"BVH_RAY",
			"scale":[
				0.9579676389694214,
				0.9579676389694214,
				0.9579676389694214
			],
			"translation":[
				0,
				0.05415964126586914,
				0
			]
		},
		{
			"children":[
				1
			],
			"mesh":2,
			"name":"eye",
			"translation":[
				0,
				7.783383846282959,
				0
			]
		},
		{
			"mesh":3,
			"name":"eye_holder",
			"translation":[
				0.06916403770446777,
				2.1959633827209473,
				0.09510111808776855
			]
		}
	],
	"animations":[
		{
			"channels":[
				{
					"sampler":0,
					"target":{
						"node":2,
						"path":"translation"
					}
				},
				{
					"sampler":1,
					"target":{
						"node":2,
						"path":"rotation"
					}
				},
				{
					"sampler":2,
					"target":{
						"node":2,
						"path":"scale"
					}
				}
			],
			"name":"eye_dead",
			"samplers":[
				{
					"input":16,
					"interpolation":"LINEAR",
					"output":17
				},
				{
					"input":16,
					"interpolation":"LINEAR",
					"output":18
				},
				{
					"input":16,
					"interpolation":"LINEAR",
					"output":19
				}
			]
		}
	],
	"materials":[
		{
			"doubleSided":true,
			"extensions":{
				"KHR_materials_specular":{
					"specularColorFactor":[
						0,
						0,
						0
					]
				},
				"KHR_materials_ior":{
					"ior":1.4500000476837158
				}
			},
			"name":"Mat",
			"pbrMetallicRoughness":{
				"baseColorTexture":{
					"index":0
				},
				"metallicFactor":0
			}
		},
		{
			"doubleSided":true,
			"name":"Material.001",
			"pbrMetallicRoughness":{
				"baseColorTexture":{
					"index":1
				},
				"metallicFactor":0,
				"roughnessFactor":0.5
			}
		}
	],
	"meshes":[
		{
			"name":"upper_sphere",
			"primitives":[
				{
					"attributes":{
						"POSITION":0,
						"NORMAL":1,
						"TEXCOORD_0":2
					},
					"indices":3
				}
			]
		},
		{
			"name":"bvRoot_sphere",
			"primitives":[
				{
					"attributes":{
						"POSITION":4,
						"NORMAL":5,
						"TEXCOORD_0":6
					},
					"indices":7
				}
			]
		},
		{
			"name":"eye",
			"primitives":[
				{
					"attributes":{
						"POSITION":8,
						"NORMAL":9,
						"TEXCOORD_0":10
					},
					"indices":11,
					"material":0
				}
			]
		},
		{
			"name":"Cube.001",
			"primitives":[
				{
					"attributes":{
						"POSITION":12,
						"NORMAL":13,
						"TEXCOORD_0":14
					},
					"indices":15,
					"material":1
				}
			]
		}
	],
	"textures":[
		{
			"sampler":0,
			"source":0
		},
		{
			"sampler":0,
			"source":1
		}
	],
	"images":[
		{
			"mimeType":"image/jpeg",
			"name":"eye-texture",
			"uri":"eye-texture.jpg"
		},
		{
			"mimeType":"image/png",
			"name":"Eye_holder_texture",
			"uri":"Eye_holder_texture.png"
		}
	],
	"accessors":[
		{
			"bufferView":0,
			"componentType":5126,
			"count":1984,
			"max":[
				4.198410511016846,
				4.19841194152832,
				4.051180839538574
			],
			"min":[
				-4.198408126831055,
				-4.19841194152832,
				-4.051183700561523
			],
			"type":"VEC3"
		},
		{
			"bufferView":1,
			"componentType":5126,
			"count":1984,
			"type":"VEC3"
		},
		{
			"bufferView":2,
			"componentType":5126,
			"count":1984,
			"type":"VEC2"
		},
		{
			"bufferView":3,
			"componentType":5123,
			"count":2880,
			"type":"SCALAR"
		},
		{
			"bufferView":4,
			"componentType":5126,
			"count":1984,
			"max":[
				4.319096088409424,
				4.319097518920898,
				4.319094657897949
			],
			"min":[
				-4.319093227386475,
				-4.319097518920898,
				-4.319097518920898
			],
			"type":"VEC3"
		},
		{
			"bufferView":5,
			"componentType":5126,
			"count":1984,
			"type":"VEC3"
		},
		{
			"bufferView":6,
			"componentType":5126,
			"count":1984,
			"type":"VEC2"
		},
		{
			"bufferView":7,
			"componentType":5123,
			"count":2880,
			"type":"SCALAR"
		},
		{
			"bufferView":8,
			"componentType":5126,
			"count":17664,
			"max":[
				4.104817867279053,
				4.1765594482421875,
				4.104817867279053
			],
			"min":[
				-4.104817867279053,
				-4.176741123199463,
				-4.104817867279053
			],
			"type":"VEC3"
		},
		{
			"bufferView":9,
			"componentType":5126,
			"count":17664,
			"type":"VEC3"
		},
		{
			"bufferView":10,
			"componentType":5126,
			"count":17664,
			"type":"VEC2"
		},
		{
			"bufferView":11,
			"componentType":5123,
			"count":26496,
			"type":"SCALAR"
		},
		{
			"bufferView":12,
			"componentType":5126,
			"count":96,
			"max":[
				2.3605875968933105,
				2.159148693084717,
				2.07157039642334
			],
			"min":[
				-2.3605875968933105,
				-2.159148693084717,
				-2.071570634841919
			],
			"type":"VEC3"
		},
		{
			"bufferView":13,
			"componentType":5126,
			"count":96,
			"type":"VEC3"
		},
		{
			"bufferView":14,
			"componentType":5126,
			"count":96,
			"type":"VEC2"
		},
		{
			"bufferView":15,
			"componentType":5123,
			"count":144,
			"type":"SCALAR"
		},
		{
			"bufferView":16,
			"componentType":5126,
			"count":221,
			"max":[
				9.166666666666666
			],
			"min":[
				0
			],
			"type":"SCALAR"
		},
		{
			"bufferView":17,
			"componentType":5126,
			"count":221,
			"type":"VEC3"
		},
		{
			"bufferView":18,
			"componentType":5126,
			"count":221,
			"type":"VEC4"
		},
		{
			"bufferView":19,
			"componentType":5126,
			"count":221,
			"type":"VEC3"
		}
	],
	"bufferViews":[
		{
			"buffer":0,
			"byteLength":23808,
			"byteOffset":0,
			"target":34962
		},
		{
			"buffer":0,
			"byteLength":23808,
			"byteOffset":23808,
			"target":34962
		},
		{
			"buffer":0,
			"byteLength":15872,
			"byteOffset":47616,
			"target":34962
		},
		{
			"buffer":0,
			"byteLength":5760,
			"byteOffset":63488,
			"target":34963
		},
		{
			"buffer":0,
			"byteLength":23808,
			"byteOffset":69248,
			"target":34962
		},
		{
			"buffer":0,
			"byteLength":23808,
			"byteOffset":93056,
			"target":34962
		},
		{
			"buffer":0,
			"byteLength":15872,
			"byteOffset":116864,
			"target":34962
		},
		{
			"buffer":0,
			"byteLength":5760,
			"byteOffset":132736,
			"target":34963
		},
		{
			"buffer":0,
			"byteLength":211968,
			"byteOffset":138496,
			"target":34962
		},
		{
			"buffer":0,
			"byteLength":211968,
			"byteOffset":350464,
			"target":34962
		},
		{
			"buffer":0,
			"byteLength":141312,
			"byteOffset":562432,
			"target":34962
		},
		{
			"buffer":0,
			"byteLength":52992,
			"byteOffset":703744,
			"target":34963
		},
		{
			"buffer":0,
			"byteLength":1152,
			"byteOffset":756736,
			"target":34962
		},
		{
			"buffer":0,
			"byteLength":1152,
			"byteOffset":757888,
			"target":34962
		},
		{
			"buffer":0,
			"byteLength":768,
			"byteOffset":759040,
			"target":34962
		},
		{
			"buffer":0,
			"byteLength":288,
			"byteOffset":759808,
			"target":34963
		},
		{
			"buffer":0,
			"byteLength":884,
			"byteOffset":760096
		},
		{
			"buffer":0,
			"byteLength":2652,
			"byteOffset":760980
		},
		{
			"buffer":0,
			"byteLength":3536,
			"byteOffset":763632
		},
		{
			"buffer":0,
			"byteLength":2652,
			"byteOffset":767168
		}
	],
	"samplers":[
		{
			"magFilter":9729,
			"minFilter":9987
		}
	],
	"buffers":[
		{
			"byteLength":769820,
			"uri":"eye.bin"
		}
	]
}
