{
	"asset":{
		"generator":"Khronos glTF Blender I/O v3.6.28",
		"version":"2.0"
	},
	"scene":0,
	"scenes":[
		{
			"name":"Scene",
			"nodes":[
				0
			]
		}
	],
	"nodes":[
		{
			"mesh":0,
			"name":"zombie1"
		}
	],
	"materials":[
		{
			"doubleSided":true,
			"emissiveFactor":[
				1,
				1,
				1
			],
			"emissiveTexture":{
				"index":0
			},
			"name":"Zombie.003",
			"normalTexture":{
				"index":1
			},
			"pbrMetallicRoughness":{
				"baseColorTexture":{
					"index":2
				},
				"metallicFactor":0,
				"roughnessFactor":0.5527864098548889
			}
		}
	],
	"meshes":[
		{
			"name":"Scene.004",
			"primitives":[
				{
					"attributes":{
						"COLOR_0":0,
						"POSITION":1,
						"NORMAL":2,
						"TEXCOORD_0":3
					},
					"indices":4,
					"material":0
				}
			]
		}
	],
	"textures":[
		{
			"sampler":0,
			"source":0
		},
		{
			"sampler":0,
			"source":1
		},
		{
			"sampler":0,
			"source":2
		}
	],
	"images":[
		{
			"mimeType":"image/png",
			"name":"EmissiveColor_Texture",
			"uri":"EmissiveColor_Texture.png"
		},
		{
			"mimeType":"image/png",
			"name":"Zombie_nm",
			"uri":"Zombie_nm.png"
		},
		{
			"mimeType":"image/png",
			"name":"DiffuseColor_Texture",
			"uri":"DiffuseColor_Texture.png"
		}
	],
	"accessors":[
		{
			"bufferView":0,
			"componentType":5123,
			"count":2635,
			"normalized":true,
			"type":"VEC4"
		},
		{
			"bufferView":1,
			"componentType":5126,
			"count":2635,
			"max":[
				0.6192134618759155,
				1.5589423179626465,
				0.10502350330352783
			],
			"min":[
				-0.619218111038208,
				0.0021155180875211954,
				-0.17335708439350128
			],
			"type":"VEC3"
		},
		{
			"bufferView":2,
			"componentType":5126,
			"count":2635,
			"type":"VEC3"
		},
		{
			"bufferView":3,
			"componentType":5126,
			"count":2635,
			"type":"VEC2"
		},
		{
			"bufferView":4,
			"componentType":5123,
			"count":12504,
			"type":"SCALAR"
		}
	],
	"bufferViews":[
		{
			"buffer":0,
			"byteLength":21080,
			"byteOffset":0,
			"target":34962
		},
		{
			"buffer":0,
			"byteLength":31620,
			"byteOffset":21080,
			"target":34962
		},
		{
			"buffer":0,
			"byteLength":31620,
			"byteOffset":52700,
			"target":34962
		},
		{
			"buffer":0,
			"byteLength":21080,
			"byteOffset":84320,
			"target":34962
		},
		{
			"buffer":0,
			"byteLength":25008,
			"byteOffset":105400,
			"target":34963
		}
	],
	"samplers":[
		{
			"magFilter":9729,
			"minFilter":9987
		}
	],
	"buffers":[
		{
			"byteLength":130408,
			"uri":"zombies.bin"
		}
	]
}
