{
	"asset":{
		"generator":"Khronos glTF Blender I/O v3.6.28",
		"version":"2.0"
	},
	"scene":0,
	"scenes":[
		{
			"name":"Scene",
			"nodes":[
				0,
				1,
				2,
				3,
				4,
				5,
				6,
				7,
				8,
				9,
				10,
				11,
				12,
				13,
				14,
				15,
				16,
				17
			]
		}
	],
	"nodes":[
		{
			"mesh":0,
			"name":"Floor"
		},
		{
			"mesh":1,
			"name":"Box.000",
			"translation":[
				0,
				1,
				0
			]
		},
		{
			"mesh":1,
			"name":"Box.002",
			"translation":[
				-3.6796302795410156,
				1.000000238418579,
				-9.361540794372559
			]
		},
		{
			"mesh":1,
			"name":"Box.003",
			"translation":[
				7.684959411621094,
				1.000000238418579,
				-3.8826940059661865
			]
		},
		{
			"mesh":2,
			"name":"Wall.000",
			"scale":[
				6,
				15,
				1
			],
			"translation":[
				0,
				15,
				-59.14985656738281
			]
		},
		{
			"mesh":2,
			"name":"Wall.001",
			"rotation":[
				0,
				0.7071068286895752,
				0,
				0.7071067094802856
			],
			"scale":[
				6,
				15,
				1
			],
			"translation":[
				-59,
				15,
				0
			]
		},
		{
			"mesh":2,
			"name":"Wall.002",
			"rotation":[
				0,
				-1,
				0,
				1.6292068494294654e-07
			],
			"scale":[
				6,
				15,
				1
			],
			"translation":[
				0,
				15,
				59
			]
		},
		{
			"mesh":2,
			"name":"Wall.003",
			"rotation":[
				0,
				-0.7071065902709961,
				0,
				0.7071070671081543
			],
			"scale":[
				6,
				15,
				1
			],
			"translation":[
				59,
				15,
				0
			]
		},
		{
			"camera":0,
			"name":"Camera",
			"translation":[
				-0.06577014923095703,
				1.5,
				9.202191352844238
			]
		},
		{
			"mesh":3,
			"name":"Baker_house1",
			"scale":[
				0.009999999776482582,
				0.010000002570450306,
				0.010000002570450306
			],
			"translation":[
				-14.298076629638672,
				0,
				-26.835691452026367
			]
		},
		{
			"mesh":4,
			"name":"Barrel4",
			"scale":[
				0.009999999776482582,
				0.010000002570450306,
				0.010000002570450306
			],
			"translation":[
				-10.10812759399414,
				0,
				-23.361120223999023
			]
		},
		{
			"mesh":5,
			"name":"Baker_house0",
			"scale":[
				0.009999999776482582,
				0.010000002570450306,
				0.010000002570450306
			],
			"translation":[
				20.042755126953125,
				0,
				-26.835691452026367
			]
		},
		{
			"mesh":6,
			"name":"Baker_house2",
			"scale":[
				0.009999999776482582,
				0.010000002570450306,
				0.010000002570450306
			],
			"translation":[
				20.042755126953125,
				0,
				9.901906967163086
			]
		},
		{
			"mesh":7,
			"name":"Baker_house3",
			"scale":[
				0.009999999776482582,
				0.010000002570450306,
				0.010000002570450306
			],
			"translation":[
				-13.563007354736328,
				0,
				9.901906967163086
			]
		},
		{
			"mesh":8,
			"name":"Barrel0",
			"scale":[
				0.009999999776482582,
				0.010000002570450306,
				0.010000002570450306
			],
			"translation":[
				18.23621368408203,
				0,
				-21.27622413635254
			]
		},
		{
			"mesh":9,
			"name":"Barrel1",
			"scale":[
				0.009999999776482582,
				0.010000002570450306,
				0.010000002570450306
			],
			"translation":[
				19.725950241088867,
				0,
				-21.27622413635254
			]
		},
		{
			"mesh":10,
			"name":"Barrel3",
			"scale":[
				0.009999999776482582,
				0.010000002570450306,
				0.010000002570450306
			],
			"translation":[
				21.23419189453125,
				0,
				-21.27622413635254
			]
		},
		{
			"mesh":11,
			"name":"Barrel2",
			"scale":[
				0.009999999776482582,
				0.010000002570450306,
				0.010000002570450306
			],
			"translation":[
				16.600086212158203,
				0,
				-21.27622413635254
			]
		}
	],
	"cameras":[
		{
			"name":"Camera.001",
			"perspective":{
				"aspectRatio":1.7777777777777777,
				"yfov":1,
				"zfar":100,
				"znear":0.10000000149011612
			},
			"type":"perspective"
		}
	],
	"materials":[
		{
			"doubleSided":true,
			"name":"Floor",
			"pbrMetallicRoughness":{
				"baseColorTexture":{
					"index":0
				},
				"metallicFactor":0,
				"roughnessFactor":0.5
			}
		},
		{
			"doubleSided":true,
			"name":"Box",
			"pbrMetallicRoughness":{
				"baseColorTexture":{
					"index":1
				},
				"metallicFactor":0,
				"roughnessFactor":0.5
			}
		},
		{
			"doubleSided":true,
			"name":"Wall",
			"pbrMetallicRoughness":{
				"baseColorTexture":{
					"index":2
				},
				"metallicFactor":0,
				"roughnessFactor":0.5
			}
		},
		{
			"doubleSided":true,
			"name":"Baker_house",
			"pbrMetallicRoughness":{
				"baseColorTexture":{
					"index":3
				},
				"metallicFactor":0,
				"roughnessFactor":0.5527864098548889
			}
		},
		{
			"doubleSided":true,
			"name":"Barrel",
			"pbrMetallicRoughness":{
				"baseColorTexture":{
					"index":4
				},
				"metallicFactor":0,
				"roughnessFactor":0.5527864098548889
			}
		}
	],
	"meshes":[
		{
			"name":"Floor",
			"primitives":[
				{
					"attributes":{
						"POSITION":0,
						"NORMAL":1,
						"TEXCOORD_0":2
					},
					"indices":3,
					"material":0
				}
			]
		},
		{
			"name":"Box",
			"primitives":[
				{
					"attributes":{
						"POSITION":4,
						"NORMAL":5,
						"TEXCOORD_0":6
					},
					"indices":7,
					"material":1
				}
			]
		},
		{
			"name":"Wall",
			"primitives":[
				{
					"attributes":{
						"POSITION":8,
						"NORMAL":9,
						"TEXCOORD_0":10
					},
					"indices":7,
					"material":2
				}
			]
		},
		{
			"name":"Scene",
			"primitives":[
				{
					"attributes":{
						"POSITION":11,
						"NORMAL":12,
						"TEXCOORD_0":13
					},
					"indices":14,
					"material":3
				}
			]
		},
		{
			"name":"Scene.001",
			"primitives":[
				{
					"attributes":{
						"POSITION":15,
						"NORMAL":16,
						"TEXCOORD_0":17
					},
					"indices":18,
					"material":4
				}
			]
		},
		{
			"name":"Scene.002",
			"primitives":[
				{
					"attributes":{
						"POSITION":19,
						"NORMAL":20,
						"TEXCOORD_0":21
					},
					"indices":14,
					"material":3
				}
			]
		},
		{
			"name":"Scene.003",
			"primitives":[
				{
					"attributes":{
						"POSITION":22,
						"NORMAL":23,
						"TEXCOORD_0":24
					},
					"indices":14,
					"material":3
				}
			]
		},
		{
			"name":"Scene.004",
			"primitives":[
				{
					"attributes":{
						"POSITION":25,
						"NORMAL":26,
						"TEXCOORD_0":27
					},
					"indices":14,
					"material":3
				}
			]
		},
		{
			"name":"Scene.005",
			"primitives":[
				{
					"attributes":{
						"POSITION":28,
						"NORMAL":29,
						"TEXCOORD_0":30
					},
					"indices":18,
					"material":4
				}
			]
		},
		{
			"name":"Scene.006",
			"primitives":[
				{
					"attributes":{
						"POSITION":31,
						"NORMAL":32,
						"TEXCOORD_0":33
					},
					"indices":18,
					"material":4
				}
			]
		},
		{
			"name":"Scene.007",
			"primitives":[
				{
					"attributes":{
						"POSITION":34,
						"NORMAL":35,
						"TEXCOORD_0":36
					},
					"indices":18,
					"material":4
				}
			]
		},
		{
			"name":"Scene.008",
			"primitives":[
				{
					"attributes":{
						"POSITION":37,
						"NORMAL":38,
						"TEXCOORD_0":39
					},
					"indices":18,
					"material":4
				}
			]
		}
	],
	"textures":[
		{
			"sampler":0,
			"source":0
		},
		{
			"sampler":0,
			"source":1
		},
		{
			"sampler":0,
			"source":2
		},
		{
			"sampler":1,
			"source":3
		},
		{
			"sampler":1,
			"source":4
		}
	],
	"images":[
		{
			"mimeType":"image/png",
			"name":"Floor",
			"uri":"Floor.png"
		},
		{
			"mimeType":"image/png",
			"name":"Box",
			"uri":"Box.png"
		},
		{
			"mimeType":"image/png",
			"name":"Wall",
			"uri":"Wall.png"
		},
		{
			"mimeType":"image/png",
			"name":"DiffuseColor_Texture",
			"uri":"DiffuseColor_Texture.png"
		},
		{
			"mimeType":"image/png",
			"name":"DiffuseColor_Texture",
			"uri":"DiffuseColor_Texture-1.png"
		}
	],
	"accessors":[
		{
			"bufferView":0,
			"componentType":5126,
			"count":4,
			"max":[
				60.03115463256836,
				0,
				60.03115463256836
			],
			"min":[
				-60.03115463256836,
				0,
				-60.03115463256836
			],
			"type":"VEC3"
		},
		{
			"bufferView":1,
			"componentType":5126,
			"count":4,
			"type":"VEC3"
		},
		{
			"bufferView":2,
			"componentType":5126,
			"count":4,
			"type":"VEC2"
		},
		{
			"bufferView":3,
			"componentType":5123,
			"count":6,
			"type":"SCALAR"
		},
		{
			"bufferView":4,
			"componentType":5126,
			"count":24,
			"max":[
				1,
				1,
				1
			],
			"min":[
				-1,
				-1,
				-1
			],
			"type":"VEC3"
		},
		{
			"bufferView":5,
			"componentType":5126,
			"count":24,
			"type":"VEC3"
		},
		{
			"bufferView":6,
			"componentType":5126,
			"count":24,
			"type":"VEC2"
		},
		{
			"bufferView":7,
			"componentType":5123,
			"count":36,
			"type":"SCALAR"
		},
		{
			"bufferView":8,
			"componentType":5126,
			"count":24,
			"max":[
				10.000003814697266,
				1,
				1
			],
			"min":[
				-9.999996185302734,
				-1,
				-1
			],
			"type":"VEC3"
		},
		{
			"bufferView":9,
			"componentType":5126,
			"count":24,
			"type":"VEC3"
		},
		{
			"bufferView":10,
			"componentType":5126,
			"count":24,
			"type":"VEC2"
		},
		{
			"bufferView":11,
			"componentType":5126,
			"count":1692,
			"max":[
				475.11492919921875,
				885.7939453125,
				495.90740966796875
			],
			"min":[
				-475.11492919921875,
				0.050015222281217575,
				-495.90740966796875
			],
			"type":"VEC3"
		},
		{
			"bufferView":12,
			"componentType":5126,
			"count":1692,
			"type":"VEC3"
		},
		{
			"bufferView":13,
			"componentType":5126,
			"count":1692,
			"type":"VEC2"
		},
		{
			"bufferView":14,
			"componentType":5123,
			"count":3075,
			"type":"SCALAR"
		},
		{
			"bufferView":15,
			"componentType":5126,
			"count":324,
			"max":[
				69.11848449707031,
				140.8051300048828,
				65.73561096191406
			],
			"min":[
				-69.11848449707031,
				0,
				-65.73561096191406
			],
			"type":"VEC3"
		},
		{
			"bufferView":16,
			"componentType":5126,
			"count":324,
			"type":"VEC3"
		},
		{
			"bufferView":17,
			"componentType":5126,
			"count":324,
			"type":"VEC2"
		},
		{
			"bufferView":18,
			"componentType":5123,
			"count":828,
			"type":"SCALAR"
		},
		{
			"bufferView":19,
			"componentType":5126,
			"count":1692,
			"max":[
				475.11492919921875,
				885.7939453125,
				495.90740966796875
			],
			"min":[
				-475.11492919921875,
				0.050015222281217575,
				-495.90740966796875
			],
			"type":"VEC3"
		},
		{
			"bufferView":20,
			"componentType":5126,
			"count":1692,
			"type":"VEC3"
		},
		{
			"bufferView":21,
			"componentType":5126,
			"count":1692,
			"type":"VEC2"
		},
		{
			"bufferView":22,
			"componentType":5126,
			"count":1692,
			"max":[
				475.11492919921875,
				885.7939453125,
				495.90740966796875
			],
			"min":[
				-475.11492919921875,
				0.050015222281217575,
				-495.90740966796875
			],
			"type":"VEC3"
		},
		{
			"bufferView":23,
			"componentType":5126,
			"count":1692,
			"type":"VEC3"
		},
		{
			"bufferView":24,
			"componentType":5126,
			"count":1692,
			"type":"VEC2"
		},
		{
			"bufferView":25,
			"componentType":5126,
			"count":1692,
			"max":[
				475.11492919921875,
				885.7939453125,
				495.90740966796875
			],
			"min":[
				-475.11492919921875,
				0.050015222281217575,
				-495.90740966796875
			],
			"type":"VEC3"
		},
		{
			"bufferView":26,
			"componentType":5126,
			"count":1692,
			"type":"VEC3"
		},
		{
			"bufferView":27,
			"componentType":5126,
			"count":1692,
			"type":"VEC2"
		},
		{
			"bufferView":28,
			"componentType":5126,
			"count":324,
			"max":[
				69.11848449707031,
				140.8051300048828,
				65.73561096191406
			],
			"min":[
				-69.11848449707031,
				0,
				-65.73561096191406
			],
			"type":"VEC3"
		},
		{
			"bufferView":29,
			"componentType":5126,
			"count":324,
			"type":"VEC3"
		},
		{
			"bufferView":30,
			"componentType":5126,
			"count":324,
			"type":"VEC2"
		},
		{
			"bufferView":31,
			"componentType":5126,
			"count":324,
			"max":[
				69.11848449707031,
				140.8051300048828,
				65.73561096191406
			],
			"min":[
				-69.11848449707031,
				0,
				-65.73561096191406
			],
			"type":"VEC3"
		},
		{
			"bufferView":32,
			"componentType":5126,
			"count":324,
			"type":"VEC3"
		},
		{
			"bufferView":33,
			"componentType":5126,
			"count":324,
			"type":"VEC2"
		},
		{
			"bufferView":34,
			"componentType":5126,
			"count":324,
			"max":[
				69.11848449707031,
				140.8051300048828,
				65.73561096191406
			],
			"min":[
				-69.11848449707031,
				0,
				-65.73561096191406
			],
			"type":"VEC3"
		},
		{
			"bufferView":35,
			"componentType":5126,
			"count":324,
			"type":"VEC3"
		},
		{
			"bufferView":36,
			"componentType":5126,
			"count":324,
			"type":"VEC2"
		},
		{
			"bufferView":37,
			"componentType":5126,
			"count":324,
			"max":[
				69.11848449707031,
				140.8051300048828,
				65.73561096191406
			],
			"min":[
				-69.11848449707031,
				0,
				-65.73561096191406
			],
			"type":"VEC3"
		},
		{
			"bufferView":38,
			"componentType":5126,
			"count":324,
			"type":"VEC3"
		},
		{
			"bufferView":39,
			"componentType":5126,
			"count":324,
			"type":"VEC2"
		}
	],
	"bufferViews":[
		{
			"buffer":0,
			"byteLength":48,
			"byteOffset":0,
			"target":34962
		},
		{
			"buffer":0,
			"byteLength":48,
			"byteOffset":48,
			"target":34962
		},
		{
			"buffer":0,
			"byteLength":32,
			"byteOffset":96,
			"target":34962
		},
		{
			"buffer":0,
			"byteLength":12,
			"byteOffset":128,
			"target":34963
		},
		{
			"buffer":0,
			"byteLength":288,
			"byteOffset":140,
			"target":34962
		},
		{
			"buffer":0,
			"byteLength":288,
			"byteOffset":428,
			"target":34962
		},
		{
			"buffer":0,
			"byteLength":192,
			"byteOffset":716,
			"target":34962
		},
		{
			"buffer":0,
			"byteLength":72,
			"byteOffset":908,
			"target":34963
		},
		{
			"buffer":0,
			"byteLength":288,
			"byteOffset":980,
			"target":34962
		},
		{
			"buffer":0,
			"byteLength":288,
			"byteOffset":1268,
			"target":34962
		},
		{
			"buffer":0,
			"byteLength":192,
			"byteOffset":1556,
			"target":34962
		},
		{
			"buffer":0,
			"byteLength":20304,
			"byteOffset":1748,
			"target":34962
		},
		{
			"buffer":0,
			"byteLength":20304,
			"byteOffset":22052,
			"target":34962
		},
		{
			"buffer":0,
			"byteLength":13536,
			"byteOffset":42356,
			"target":34962
		},
		{
			"buffer":0,
			"byteLength":6150,
			"byteOffset":55892,
			"target":34963
		},
		{
			"buffer":0,
			"byteLength":3888,
			"byteOffset":62044,
			"target":34962
		},
		{
			"buffer":0,
			"byteLength":3888,
			"byteOffset":65932,
			"target":34962
		},
		{
			"buffer":0,
			"byteLength":2592,
			"byteOffset":69820,
			"target":34962
		},
		{
			"buffer":0,
			"byteLength":1656,
			"byteOffset":72412,
			"target":34963
		},
		{
			"buffer":0,
			"byteLength":20304,
			"byteOffset":74068,
			"target":34962
		},
		{
			"buffer":0,
			"byteLength":20304,
			"byteOffset":94372,
			"target":34962
		},
		{
			"buffer":0,
			"byteLength":13536,
			"byteOffset":114676,
			"target":34962
		},
		{
			"buffer":0,
			"byteLength":20304,
			"byteOffset":128212,
			"target":34962
		},
		{
			"buffer":0,
			"byteLength":20304,
			"byteOffset":148516,
			"target":34962
		},
		{
			"buffer":0,
			"byteLength":13536,
			"byteOffset":168820,
			"target":34962
		},
		{
			"buffer":0,
			"byteLength":20304,
			"byteOffset":182356,
			"target":34962
		},
		{
			"buffer":0,
			"byteLength":20304,
			"byteOffset":202660,
			"target":34962
		},
		{
			"buffer":0,
			"byteLength":13536,
			"byteOffset":222964,
			"target":34962
		},
		{
			"buffer":0,
			"byteLength":3888,
			"byteOffset":236500,
			"target":34962
		},
		{
			"buffer":0,
			"byteLength":3888,
			"byteOffset":240388,
			"target":34962
		},
		{
			"buffer":0,
			"byteLength":2592,
			"byteOffset":244276,
			"target":34962
		},
		{
			"buffer":0,
			"byteLength":3888,
			"byteOffset":246868,
			"target":34962
		},
		{
			"buffer":0,
			"byteLength":3888,
			"byteOffset":250756,
			"target":34962
		},
		{
			"buffer":0,
			"byteLength":2592,
			"byteOffset":254644,
			"target":34962
		},
		{
			"buffer":0,
			"byteLength":3888,
			"byteOffset":257236,
			"target":34962
		},
		{
			"buffer":0,
			"byteLength":3888,
			"byteOffset":261124,
			"target":34962
		},
		{
			"buffer":0,
			"byteLength":2592,
			"byteOffset":265012,
			"target":34962
		},
		{
			"buffer":0,
			"byteLength":3888,
			"byteOffset":267604,
			"target":34962
		},
		{
			"buffer":0,
			"byteLength":3888,
			"byteOffset":271492,
			"target":34962
		},
		{
			"buffer":0,
			"byteLength":2592,
			"byteOffset":275380,
			"target":34962
		}
	],
	"samplers":[
		{
			"magFilter":9728,
			"minFilter":9984
		},
		{
			"magFilter":9729,
			"minFilter":9987
		}
	],
	"buffers":[
		{
			"byteLength":277972,
			"uri":"scene2.bin"
		}
	]
}
