{
	"asset":{
		"generator":"Khronos glTF Blender I/O v3.6.28",
		"version":"2.0"
	},
	"extensionsUsed":[
		"KHR_lights_punctual",
		"KHR_materials_specular",
		"KHR_materials_ior"
	],
	"extensionsRequired":[
		"KHR_lights_punctual"
	],
	"extensions":{
		"KHR_lights_punctual":{
			"lights":[
				{
					"color":[
						0.2341342717409134,
						0.002482260810211301,
						1
					],
					"intensity":2174.0565226352905,
					"type":"point",
					"name":"Point"
				},
				{
					"color":[
						0.2341342717409134,
						0.002482260810211301,
						1
					],
					"intensity":2174.0565226352905,
					"type":"point",
					"name":"Point.001"
				},
				{
					"color":[
						0.2341342717409134,
						0.002482260810211301,
						1
					],
					"intensity":2174.0565226352905,
					"type":"point",
					"name":"Point.002"
				}
			]
		}
	},
	"scene":0,
	"scenes":[
		{
			"name":"Scene",
			"nodes":[
				9
			]
		}
	],
	"nodes":[
		{
			"mesh":0,
			"name":"bvPortal",
			"scale":[
				0.5841527581214905,
				1,
				0.4507738947868347
			]
		},
		{
			"mesh":1,
			"name":"LeftPillar",
			"scale":[
				1.111229658126831,
				1,
				1.123894453048706
			],
			"translation":[
				3.016383647918701,
				-0.883690357208252,
				0.05527409166097641
			]
		},
		{
			"mesh":2,
			"name":"RightPillar",
			"translation":[
				-3.1826083660125732,
				-0.8189606666564941,
				0.0552741214632988
			]
		},
		{
			"children":[
				0,
				1,
				2
			],
			"mesh":3,
			"name":"BVH_OBJECT",
			"translation":[
				0.12839460372924805,
				-1.1558122634887695,
				-0.027821511030197144
			]
		},
		{
			"extensions":{
				"KHR_lights_punctual":{
					"light":0
				}
			},
			"name":"L1",
			"rotation":[
				-0.7071068286895752,
				0,
				0,
				0.7071068286895752
			],
			"translation":[
				-0.10988187789916992,
				0.547905445098877,
				0
			]
		},
		{
			"extensions":{
				"KHR_lights_punctual":{
					"light":1
				}
			},
			"name":"L2",
			"rotation":[
				-0.7071068286895752,
				0,
				0,
				0.7071068286895752
			],
			"translation":[
				-0.10988187789916992,
				-4.41777229309082,
				0
			]
		},
		{
			"extensions":{
				"KHR_lights_punctual":{
					"light":2
				}
			},
			"name":"L3",
			"rotation":[
				-0.7071068286895752,
				0,
				0,
				0.7071068286895752
			],
			"translation":[
				-0.10988187789916992,
				-1.8333287239074707,
				0
			]
		},
		{
			"mesh":4,
			"name":"Plane",
			"rotation":[
				0.5,
				-0.5,
				-0.4999999701976776,
				0.5000000596046448
			],
			"scale":[
				5.123962879180908,
				1,
				2.335031032562256
			],
			"translation":[
				0.17295241355895996,
				-1.967491626739502,
				0
			]
		},
		{
			"mesh":5,
			"name":"Plane.001",
			"rotation":[
				-0.5000000596046448,
				0.4999999701976776,
				-0.5,
				0.5
			],
			"scale":[
				5.123962879180908,
				1,
				2.335031032562256
			],
			"translation":[
				0.17295241355895996,
				-1.967491626739502,
				-0.07447955757379532
			]
		},
		{
			"children":[
				3,
				4,
				5,
				6,
				7,
				8
			],
			"mesh":6,
			"name":"portal",
			"translation":[
				-3.136730909347534,
				7.1713948249816895,
				0
			]
		}
	],
	"materials":[
		{
			"doubleSided":true,
			"name":"Material.001",
			"pbrMetallicRoughness":{
				"baseColorTexture":{
					"index":0
				},
				"metallicFactor":0,
				"roughnessFactor":0.5
			}
		},
		{
			"doubleSided":true,
			"extensions":{
				"KHR_materials_specular":{
					"specularColorFactor":[
						0.23713578264572902,
						0.23713578264572902,
						0.23713578264572902
					]
				},
				"KHR_materials_ior":{
					"ior":1.4500000476837158
				}
			},
			"name":"Material",
			"pbrMetallicRoughness":{
				"baseColorTexture":{
					"index":1
				},
				"metallicFactor":0,
				"roughnessFactor":0.917142927646637
			}
		}
	],
	"meshes":[
		{
			"name":"bvPortal_box",
			"primitives":[
				{
					"attributes":{
						"POSITION":0,
						"NORMAL":1,
						"TEXCOORD_0":2
					},
					"indices":3
				}
			]
		},
		{
			"name":"bvRight_box",
			"primitives":[
				{
					"attributes":{
						"POSITION":4,
						"NORMAL":5,
						"TEXCOORD_0":6
					},
					"indices":3
				}
			]
		},
		{
			"name":"bvLeft_box",
			"primitives":[
				{
					"attributes":{
						"POSITION":7,
						"NORMAL":8,
						"TEXCOORD_0":9
					},
					"indices":3
				}
			]
		},
		{
			"name":"bvRoot_box",
			"primitives":[
				{
					"attributes":{
						"POSITION":10,
						"NORMAL":11,
						"TEXCOORD_0":12
					},
					"indices":3
				}
			]
		},
		{
			"name":"Plane",
			"primitives":[
				{
					"attributes":{
						"POSITION":13,
						"NORMAL":14,
						"TEXCOORD_0":15
					},
					"indices":16,
					"material":0
				}
			]
		},
		{
			"name":"Plane.001",
			"primitives":[
				{
					"attributes":{
						"POSITION":17,
						"NORMAL":18,
						"TEXCOORD_0":19
					},
					"indices":16,
					"material":0
				}
			]
		},
		{
			"name":"Cube.002",
			"primitives":[
				{
					"attributes":{
						"POSITION":20,
						"NORMAL":21,
						"TEXCOORD_0":22
					},
					"indices":23,
					"material":1
				}
			]
		}
	],
	"textures":[
		{
			"sampler":0,
			"source":0
		},
		{
			"sampler":0,
			"source":1
		}
	],
	"images":[
		{
			"mimeType":"image/jpeg",
			"name":"HD-wallpaper-nether-portal-dark-purple",
			"uri":"HD-wallpaper-nether-portal-dark-purple.jpg"
		},
		{
			"mimeType":"image/jpeg",
			"name":"stone",
			"uri":"stone.jpg"
		}
	],
	"accessors":[
		{
			"bufferView":0,
			"componentType":5126,
			"count":24,
			"max":[
				3.9016568660736084,
				5.939840793609619,
				0.9230422377586365
			],
			"min":[
				-3.9016568660736084,
				-5.939840793609619,
				-0.9230422377586365
			],
			"type":"VEC3"
		},
		{
			"bufferView":1,
			"componentType":5126,
			"count":24,
			"type":"VEC3"
		},
		{
			"bufferView":2,
			"componentType":5126,
			"count":24,
			"type":"VEC2"
		},
		{
			"bufferView":3,
			"componentType":5123,
			"count":36,
			"type":"SCALAR"
		},
		{
			"bufferView":4,
			"componentType":5126,
			"count":24,
			"max":[
				0.7442159056663513,
				5.003162860870361,
				0.86334627866745
			],
			"min":[
				-0.7442159056663513,
				-5.003162860870361,
				-0.86334627866745
			],
			"type":"VEC3"
		},
		{
			"bufferView":5,
			"componentType":5126,
			"count":24,
			"type":"VEC3"
		},
		{
			"bufferView":6,
			"componentType":5126,
			"count":24,
			"type":"VEC2"
		},
		{
			"bufferView":7,
			"componentType":5126,
			"count":24,
			"max":[
				0.7529028654098511,
				5.061562538146973,
				0.9761125445365906
			],
			"min":[
				-0.7529028654098511,
				-5.061562538146973,
				-0.9761125445365906
			],
			"type":"VEC3"
		},
		{
			"bufferView":8,
			"componentType":5126,
			"count":24,
			"type":"VEC3"
		},
		{
			"bufferView":9,
			"componentType":5126,
			"count":24,
			"type":"VEC2"
		},
		{
			"bufferView":10,
			"componentType":5126,
			"count":24,
			"max":[
				3.9016568660736084,
				5.939840793609619,
				0.9230422377586365
			],
			"min":[
				-3.9016568660736084,
				-5.939840793609619,
				-0.9230422377586365
			],
			"type":"VEC3"
		},
		{
			"bufferView":11,
			"componentType":5126,
			"count":24,
			"type":"VEC3"
		},
		{
			"bufferView":12,
			"componentType":5126,
			"count":24,
			"type":"VEC2"
		},
		{
			"bufferView":13,
			"componentType":5126,
			"count":4,
			"max":[
				1,
				0,
				1
			],
			"min":[
				-1,
				0,
				-1
			],
			"type":"VEC3"
		},
		{
			"bufferView":14,
			"componentType":5126,
			"count":4,
			"type":"VEC3"
		},
		{
			"bufferView":15,
			"componentType":5126,
			"count":4,
			"type":"VEC2"
		},
		{
			"bufferView":16,
			"componentType":5123,
			"count":6,
			"type":"SCALAR"
		},
		{
			"bufferView":17,
			"componentType":5126,
			"count":4,
			"max":[
				1,
				0,
				1
			],
			"min":[
				-1,
				0,
				-1
			],
			"type":"VEC3"
		},
		{
			"bufferView":18,
			"componentType":5126,
			"count":4,
			"type":"VEC3"
		},
		{
			"bufferView":19,
			"componentType":5126,
			"count":4,
			"type":"VEC2"
		},
		{
			"bufferView":20,
			"componentType":5126,
			"count":72,
			"max":[
				4.913214206695557,
				4.761063575744629,
				0.9454827904701233
			],
			"min":[
				-5.227126598358154,
				-7.038605213165283,
				-0.9454827904701233
			],
			"type":"VEC3"
		},
		{
			"bufferView":21,
			"componentType":5126,
			"count":72,
			"type":"VEC3"
		},
		{
			"bufferView":22,
			"componentType":5126,
			"count":72,
			"type":"VEC2"
		},
		{
			"bufferView":23,
			"componentType":5123,
			"count":108,
			"type":"SCALAR"
		}
	],
	"bufferViews":[
		{
			"buffer":0,
			"byteLength":288,
			"byteOffset":0,
			"target":34962
		},
		{
			"buffer":0,
			"byteLength":288,
			"byteOffset":288,
			"target":34962
		},
		{
			"buffer":0,
			"byteLength":192,
			"byteOffset":576,
			"target":34962
		},
		{
			"buffer":0,
			"byteLength":72,
			"byteOffset":768,
			"target":34963
		},
		{
			"buffer":0,
			"byteLength":288,
			"byteOffset":840,
			"target":34962
		},
		{
			"buffer":0,
			"byteLength":288,
			"byteOffset":1128,
			"target":34962
		},
		{
			"buffer":0,
			"byteLength":192,
			"byteOffset":1416,
			"target":34962
		},
		{
			"buffer":0,
			"byteLength":288,
			"byteOffset":1608,
			"target":34962
		},
		{
			"buffer":0,
			"byteLength":288,
			"byteOffset":1896,
			"target":34962
		},
		{
			"buffer":0,
			"byteLength":192,
			"byteOffset":2184,
			"target":34962
		},
		{
			"buffer":0,
			"byteLength":288,
			"byteOffset":2376,
			"target":34962
		},
		{
			"buffer":0,
			"byteLength":288,
			"byteOffset":2664,
			"target":34962
		},
		{
			"buffer":0,
			"byteLength":192,
			"byteOffset":2952,
			"target":34962
		},
		{
			"buffer":0,
			"byteLength":48,
			"byteOffset":3144,
			"target":34962
		},
		{
			"buffer":0,
			"byteLength":48,
			"byteOffset":3192,
			"target":34962
		},
		{
			"buffer":0,
			"byteLength":32,
			"byteOffset":3240,
			"target":34962
		},
		{
			"buffer":0,
			"byteLength":12,
			"byteOffset":3272,
			"target":34963
		},
		{
			"buffer":0,
			"byteLength":48,
			"byteOffset":3284,
			"target":34962
		},
		{
			"buffer":0,
			"byteLength":48,
			"byteOffset":3332,
			"target":34962
		},
		{
			"buffer":0,
			"byteLength":32,
			"byteOffset":3380,
			"target":34962
		},
		{
			"buffer":0,
			"byteLength":864,
			"byteOffset":3412,
			"target":34962
		},
		{
			"buffer":0,
			"byteLength":864,
			"byteOffset":4276,
			"target":34962
		},
		{
			"buffer":0,
			"byteLength":576,
			"byteOffset":5140,
			"target":34962
		},
		{
			"buffer":0,
			"byteLength":216,
			"byteOffset":5716,
			"target":34963
		}
	],
	"samplers":[
		{
			"magFilter":9729,
			"minFilter":9987
		}
	],
	"buffers":[
		{
			"byteLength":5932,
			"uri":"portal.bin"
		}
	]
}
