{
	"asset":{
		"generator":"Khronos glTF Blender I/O v3.6.28",
		"version":"2.0"
	},
	"scene":0,
	"scenes":[
		{
			"name":"Scene",
			"nodes":[
				1,
				3,
				6,
				7
			]
		}
	],
	"nodes":[
		{
			"mesh":0,
			"name":"rifle_magazine"
		},
		{
			"children":[
				0
			],
			"mesh":1,
			"name":"ak47_rifle",
			"translation":[
				0,
				1.0453002452850342,
				-5.905946254730225
			]
		},
		{
			"mesh":2,
			"name":"sight"
		},
		{
			"children":[
				2
			],
			"mesh":3,
			"name":"sniper_rifle",
			"translation":[
				0,
				1.920347809791565,
				-4.93513822555542
			]
		},
		{
			"mesh":4,
			"name":"Rocket"
		},
		{
			"mesh":5,
			"name":"Trigger"
		},
		{
			"children":[
				4,
				5
			],
			"mesh":6,
			"name":"rpg",
			"translation":[
				0,
				1.1007641553878784,
				-12.25570011138916
			]
		},
		{
			"mesh":7,
			"name":"rpg_rocket",
			"translation":[
				0,
				2.2511255741119385,
				-12.299006462097168
			]
		}
	],
	"materials":[
		{
			"doubleSided":true,
			"name":"Material.001",
			"pbrMetallicRoughness":{
				"baseColorTexture":{
					"index":0
				},
				"metallicFactor":0,
				"roughnessFactor":0.5527864098548889
			}
		},
		{
			"doubleSided":true,
			"name":"Material.002",
			"pbrMetallicRoughness":{
				"baseColorTexture":{
					"index":1
				},
				"metallicFactor":0,
				"roughnessFactor":0.5527864098548889
			}
		},
		{
			"doubleSided":true,
			"name":"Gun_MAT",
			"pbrMetallicRoughness":{
				"baseColorTexture":{
					"index":2
				},
				"metallicFactor":0,
				"roughnessFactor":0.5527864098548889
			}
		}
	],
	"meshes":[
		{
			"name":"Scene.001",
			"primitives":[
				{
					"attributes":{
						"POSITION":0,
						"NORMAL":1,
						"TEXCOORD_0":2
					},
					"indices":3,
					"material":0
				}
			]
		},
		{
			"name":"Scene",
			"primitives":[
				{
					"attributes":{
						"POSITION":4,
						"NORMAL":5,
						"TEXCOORD_0":6
					},
					"indices":7,
					"material":0
				}
			]
		},
		{
			"name":"Scene.003",
			"primitives":[
				{
					"attributes":{
						"POSITION":8,
						"NORMAL":9,
						"TEXCOORD_0":10
					},
					"indices":11,
					"material":1
				}
			]
		},
		{
			"name":"Scene.002",
			"primitives":[
				{
					"attributes":{
						"POSITION":12,
						"NORMAL":13,
						"TEXCOORD_0":14
					},
					"indices":15,
					"material":1
				}
			]
		},
		{
			"name":"Scene.005",
			"primitives":[
				{
					"attributes":{
						"POSITION":16,
						"NORMAL":17,
						"TEXCOORD_0":18
					},
					"indices":19,
					"material":2
				}
			]
		},
		{
			"name":"Scene.006",
			"primitives":[
				{
					"attributes":{
						"POSITION":20,
						"NORMAL":21,
						"TEXCOORD_0":22
					},
					"indices":23,
					"material":2
				}
			]
		},
		{
			"name":"Scene.004",
			"primitives":[
				{
					"attributes":{
						"POSITION":24,
						"NORMAL":25,
						"TEXCOORD_0":26
					},
					"indices":27,
					"material":2
				}
			]
		},
		{
			"name":"Scene.007",
			"primitives":[
				{
					"attributes":{
						"POSITION":28,
						"NORMAL":29,
						"TEXCOORD_0":30
					},
					"indices":31,
					"material":2
				}
			]
		}
	],
	"textures":[
		{
			"sampler":0,
			"source":0
		},
		{
			"sampler":0,
			"source":0
		},
		{
			"sampler":0,
			"source":1
		}
	],
	"images":[
		{
			"mimeType":"image/png",
			"name":"Texture",
			"uri":"Texture.png"
		},
		{
			"mimeType":"image/png",
			"name":"Textures_Guns",
			"uri":"Textures_Guns.png"
		}
	],
	"accessors":[
		{
			"bufferView":0,
			"componentType":5126,
			"count":160,
			"max":[
				0.0487917922437191,
				-0.12954604625701904,
				0.37656328082084656
			],
			"min":[
				-0.04879188910126686,
				-0.7744309902191162,
				-0.12426212430000305
			],
			"type":"VEC3"
		},
		{
			"bufferView":1,
			"componentType":5126,
			"count":160,
			"type":"VEC3"
		},
		{
			"bufferView":2,
			"componentType":5126,
			"count":160,
			"type":"VEC2"
		},
		{
			"bufferView":3,
			"componentType":5123,
			"count":798,
			"type":"SCALAR"
		},
		{
			"bufferView":4,
			"componentType":5126,
			"count":1263,
			"max":[
				0.1415206342935562,
				0.22609303891658783,
				1.9929063320159912
			],
			"min":[
				-0.12958160042762756,
				-0.6457408666610718,
				-1.5202865600585938
			],
			"type":"VEC3"
		},
		{
			"bufferView":5,
			"componentType":5126,
			"count":1263,
			"type":"VEC3"
		},
		{
			"bufferView":6,
			"componentType":5126,
			"count":1263,
			"type":"VEC2"
		},
		{
			"bufferView":7,
			"componentType":5123,
			"count":3792,
			"type":"SCALAR"
		},
		{
			"bufferView":8,
			"componentType":5126,
			"count":702,
			"max":[
				0.16396766901016235,
				0.5505474805831909,
				0.12268692255020142
			],
			"min":[
				-0.15565328299999237,
				0.20214605331420898,
				-1.2389836311340332
			],
			"type":"VEC3"
		},
		{
			"bufferView":9,
			"componentType":5126,
			"count":702,
			"type":"VEC3"
		},
		{
			"bufferView":10,
			"componentType":5126,
			"count":702,
			"type":"VEC2"
		},
		{
			"bufferView":11,
			"componentType":5123,
			"count":1908,
			"type":"SCALAR"
		},
		{
			"bufferView":12,
			"componentType":5126,
			"count":911,
			"max":[
				0.2688104212284088,
				0.23379337787628174,
				1.0993592739105225
			],
			"min":[
				-0.08237811923027039,
				-0.34554123878479004,
				-2.5270910263061523
			],
			"type":"VEC3"
		},
		{
			"bufferView":13,
			"componentType":5126,
			"count":911,
			"type":"VEC3"
		},
		{
			"bufferView":14,
			"componentType":5126,
			"count":911,
			"type":"VEC2"
		},
		{
			"bufferView":15,
			"componentType":5123,
			"count":3216,
			"type":"SCALAR"
		},
		{
			"bufferView":16,
			"componentType":5126,
			"count":608,
			"max":[
				0.2353552281856537,
				0.24887819588184357,
				0.7282962203025818
			],
			"min":[
				-0.2353552281856537,
				-0.2218322604894638,
				-3.3869831562042236
			],
			"type":"VEC3"
		},
		{
			"bufferView":17,
			"componentType":5126,
			"count":608,
			"type":"VEC3"
		},
		{
			"bufferView":18,
			"componentType":5126,
			"count":608,
			"type":"VEC2"
		},
		{
			"bufferView":19,
			"componentType":5123,
			"count":1092,
			"type":"SCALAR"
		},
		{
			"bufferView":20,
			"componentType":5126,
			"count":92,
			"max":[
				0.007292486261576414,
				-0.08385402709245682,
				-0.6294350624084473
			],
			"min":[
				-0.007292486261576414,
				-0.30343860387802124,
				-0.7059473991394043
			],
			"type":"VEC3"
		},
		{
			"bufferView":21,
			"componentType":5126,
			"count":92,
			"type":"VEC3"
		},
		{
			"bufferView":22,
			"componentType":5126,
			"count":92,
			"type":"VEC2"
		},
		{
			"bufferView":23,
			"componentType":5123,
			"count":174,
			"type":"SCALAR"
		},
		{
			"bufferView":24,
			"componentType":5126,
			"count":1218,
			"max":[
				0.3156420886516571,
				0.5580103993415833,
				3.530776023864746
			],
			"min":[
				-0.3156420886516571,
				-0.8220312595367432,
				-1.6702526807785034
			],
			"type":"VEC3"
		},
		{
			"bufferView":25,
			"componentType":5126,
			"count":1218,
			"type":"VEC3"
		},
		{
			"bufferView":26,
			"componentType":5126,
			"count":1218,
			"type":"VEC2"
		},
		{
			"bufferView":27,
			"componentType":5123,
			"count":2430,
			"type":"SCALAR"
		},
		{
			"bufferView":28,
			"componentType":5126,
			"count":608,
			"max":[
				0.2353551983833313,
				0.2348719835281372,
				2.8085336685180664
			],
			"min":[
				-0.2353552281856537,
				-0.2358384132385254,
				-1.3067455291748047
			],
			"type":"VEC3"
		},
		{
			"bufferView":29,
			"componentType":5126,
			"count":608,
			"type":"VEC3"
		},
		{
			"bufferView":30,
			"componentType":5126,
			"count":608,
			"type":"VEC2"
		},
		{
			"bufferView":31,
			"componentType":5123,
			"count":1092,
			"type":"SCALAR"
		}
	],
	"bufferViews":[
		{
			"buffer":0,
			"byteLength":1920,
			"byteOffset":0,
			"target":34962
		},
		{
			"buffer":0,
			"byteLength":1920,
			"byteOffset":1920,
			"target":34962
		},
		{
			"buffer":0,
			"byteLength":1280,
			"byteOffset":3840,
			"target":34962
		},
		{
			"buffer":0,
			"byteLength":1596,
			"byteOffset":5120,
			"target":34963
		},
		{
			"buffer":0,
			"byteLength":15156,
			"byteOffset":6716,
			"target":34962
		},
		{
			"buffer":0,
			"byteLength":15156,
			"byteOffset":21872,
			"target":34962
		},
		{
			"buffer":0,
			"byteLength":10104,
			"byteOffset":37028,
			"target":34962
		},
		{
			"buffer":0,
			"byteLength":7584,
			"byteOffset":47132,
			"target":34963
		},
		{
			"buffer":0,
			"byteLength":8424,
			"byteOffset":54716,
			"target":34962
		},
		{
			"buffer":0,
			"byteLength":8424,
			"byteOffset":63140,
			"target":34962
		},
		{
			"buffer":0,
			"byteLength":5616,
			"byteOffset":71564,
			"target":34962
		},
		{
			"buffer":0,
			"byteLength":3816,
			"byteOffset":77180,
			"target":34963
		},
		{
			"buffer":0,
			"byteLength":10932,
			"byteOffset":80996,
			"target":34962
		},
		{
			"buffer":0,
			"byteLength":10932,
			"byteOffset":91928,
			"target":34962
		},
		{
			"buffer":0,
			"byteLength":7288,
			"byteOffset":102860,
			"target":34962
		},
		{
			"buffer":0,
			"byteLength":6432,
			"byteOffset":110148,
			"target":34963
		},
		{
			"buffer":0,
			"byteLength":7296,
			"byteOffset":116580,
			"target":34962
		},
		{
			"buffer":0,
			"byteLength":7296,
			"byteOffset":123876,
			"target":34962
		},
		{
			"buffer":0,
			"byteLength":4864,
			"byteOffset":131172,
			"target":34962
		},
		{
			"buffer":0,
			"byteLength":2184,
			"byteOffset":136036,
			"target":34963
		},
		{
			"buffer":0,
			"byteLength":1104,
			"byteOffset":138220,
			"target":34962
		},
		{
			"buffer":0,
			"byteLength":1104,
			"byteOffset":139324,
			"target":34962
		},
		{
			"buffer":0,
			"byteLength":736,
			"byteOffset":140428,
			"target":34962
		},
		{
			"buffer":0,
			"byteLength":348,
			"byteOffset":141164,
			"target":34963
		},
		{
			"buffer":0,
			"byteLength":14616,
			"byteOffset":141512,
			"target":34962
		},
		{
			"buffer":0,
			"byteLength":14616,
			"byteOffset":156128,
			"target":34962
		},
		{
			"buffer":0,
			"byteLength":9744,
			"byteOffset":170744,
			"target":34962
		},
		{
			"buffer":0,
			"byteLength":4860,
			"byteOffset":180488,
			"target":34963
		},
		{
			"buffer":0,
			"byteLength":7296,
			"byteOffset":185348,
			"target":34962
		},
		{
			"buffer":0,
			"byteLength":7296,
			"byteOffset":192644,
			"target":34962
		},
		{
			"buffer":0,
			"byteLength":4864,
			"byteOffset":199940,
			"target":34962
		},
		{
			"buffer":0,
			"byteLength":2184,
			"byteOffset":204804,
			"target":34963
		}
	],
	"samplers":[
		{
			"magFilter":9729,
			"minFilter":9987
		}
	],
	"buffers":[
		{
			"byteLength":206988,
			"uri":"weapons.bin"
		}
	]
}
