{
	"asset":{
		"generator":"Khronos glTF Blender I/O v3.6.28",
		"version":"2.0"
	},
	"scene":0,
	"scenes":[
		{
			"name":"Scene",
			"nodes":[
				1,
				3,
				6,
				7,
				8
			]
		}
	],
	"nodes":[
		{
			"mesh":0,
			"name":"rifle_magazine",
			"translation":[
				-0.001351912273094058,
				-0.0949600338935852,
				-0.079731285572052
			]
		},
		{
			"children":[
				0
			],
			"mesh":1,
			"name":"ak47_rifle",
			"translation":[
				-0.0021263237576931715,
				0.36665835976600647,
				-0.7814514636993408
			]
		},
		{
			"mesh":2,
			"name":"sight",
			"translation":[
				-0.003732592100277543,
				-0.0024448633193969727,
				0.045722126960754395
			]
		},
		{
			"children":[
				2
			],
			"mesh":3,
			"name":"sniper_rifle",
			"translation":[
				0.003732592100277543,
				0.615881621837616,
				-0.7725956439971924
			]
		},
		{
			"mesh":4,
			"name":"Rocket"
		},
		{
			"mesh":5,
			"name":"Trigger"
		},
		{
			"children":[
				4,
				5
			],
			"mesh":6,
			"name":"rpg",
			"translation":[
				0,
				0.32427555322647095,
				-2.433588981628418
			]
		},
		{
			"mesh":7,
			"name":"rpg_rocket",
			"translation":[
				0,
				0.695170521736145,
				-2.525991678237915
			]
		},
		{
			"mesh":8,
			"name":"bullet",
			"translation":[
				-0.015871673822402954,
				0.451602578163147,
				-1.3808060884475708
			]
		}
	],
	"animations":[
		{
			"channels":[
				{
					"sampler":0,
					"target":{
						"node":1,
						"path":"translation"
					}
				},
				{
					"sampler":1,
					"target":{
						"node":1,
						"path":"rotation"
					}
				},
				{
					"sampler":2,
					"target":{
						"node":1,
						"path":"scale"
					}
				}
			],
			"name":"ak47_reload",
			"samplers":[
				{
					"input":36,
					"interpolation":"STEP",
					"output":37
				},
				{
					"input":38,
					"interpolation":"LINEAR",
					"output":39
				},
				{
					"input":36,
					"interpolation":"STEP",
					"output":40
				}
			]
		},
		{
			"channels":[
				{
					"sampler":0,
					"target":{
						"node":0,
						"path":"translation"
					}
				},
				{
					"sampler":1,
					"target":{
						"node":0,
						"path":"rotation"
					}
				},
				{
					"sampler":2,
					"target":{
						"node":0,
						"path":"scale"
					}
				}
			],
			"name":"ak47_reload_child",
			"samplers":[
				{
					"input":41,
					"interpolation":"LINEAR",
					"output":42
				},
				{
					"input":43,
					"interpolation":"STEP",
					"output":44
				},
				{
					"input":43,
					"interpolation":"STEP",
					"output":45
				}
			]
		},
		{
			"channels":[
				{
					"sampler":0,
					"target":{
						"node":3,
						"path":"translation"
					}
				},
				{
					"sampler":1,
					"target":{
						"node":3,
						"path":"rotation"
					}
				},
				{
					"sampler":2,
					"target":{
						"node":3,
						"path":"scale"
					}
				}
			],
			"name":"sniper_reload",
			"samplers":[
				{
					"input":46,
					"interpolation":"STEP",
					"output":47
				},
				{
					"input":48,
					"interpolation":"LINEAR",
					"output":49
				},
				{
					"input":46,
					"interpolation":"STEP",
					"output":50
				}
			]
		},
		{
			"channels":[
				{
					"sampler":0,
					"target":{
						"node":2,
						"path":"translation"
					}
				},
				{
					"sampler":1,
					"target":{
						"node":2,
						"path":"rotation"
					}
				},
				{
					"sampler":2,
					"target":{
						"node":2,
						"path":"scale"
					}
				}
			],
			"name":"sightAction",
			"samplers":[
				{
					"input":51,
					"interpolation":"LINEAR",
					"output":52
				},
				{
					"input":51,
					"interpolation":"LINEAR",
					"output":53
				},
				{
					"input":51,
					"interpolation":"STEP",
					"output":54
				}
			]
		},
		{
			"channels":[
				{
					"sampler":0,
					"target":{
						"node":6,
						"path":"translation"
					}
				},
				{
					"sampler":1,
					"target":{
						"node":6,
						"path":"rotation"
					}
				}
			],
			"name":"rpg_reload",
			"samplers":[
				{
					"input":55,
					"interpolation":"STEP",
					"output":56
				},
				{
					"input":57,
					"interpolation":"LINEAR",
					"output":58
				}
			]
		},
		{
			"channels":[
				{
					"sampler":0,
					"target":{
						"node":4,
						"path":"translation"
					}
				},
				{
					"sampler":1,
					"target":{
						"node":4,
						"path":"rotation"
					}
				}
			],
			"name":"rpg_reload_child",
			"samplers":[
				{
					"input":59,
					"interpolation":"LINEAR",
					"output":60
				},
				{
					"input":61,
					"interpolation":"STEP",
					"output":62
				}
			]
		},
		{
			"channels":[
				{
					"sampler":0,
					"target":{
						"node":5,
						"path":"translation"
					}
				},
				{
					"sampler":1,
					"target":{
						"node":5,
						"path":"rotation"
					}
				}
			],
			"name":"rpg_reload_child1",
			"samplers":[
				{
					"input":63,
					"interpolation":"STEP",
					"output":64
				},
				{
					"input":63,
					"interpolation":"STEP",
					"output":65
				}
			]
		}
	],
	"materials":[
		{
			"doubleSided":true,
			"name":"Material.001",
			"pbrMetallicRoughness":{
				"baseColorTexture":{
					"index":0
				},
				"metallicFactor":0,
				"roughnessFactor":0.5527864098548889
			}
		},
		{
			"doubleSided":true,
			"name":"Material.002",
			"pbrMetallicRoughness":{
				"baseColorTexture":{
					"index":1
				},
				"metallicFactor":0,
				"roughnessFactor":0.5527864098548889
			}
		},
		{
			"doubleSided":true,
			"name":"Gun_MAT",
			"pbrMetallicRoughness":{
				"baseColorTexture":{
					"index":2
				},
				"metallicFactor":0,
				"roughnessFactor":0.5527864098548889
			}
		},
		{
			"doubleSided":true,
			"name":"Material",
			"pbrMetallicRoughness":{
				"baseColorTexture":{
					"index":3
				},
				"metallicFactor":0,
				"roughnessFactor":0.5
			}
		}
	],
	"meshes":[
		{
			"name":"Scene.001",
			"primitives":[
				{
					"attributes":{
						"POSITION":0,
						"NORMAL":1,
						"TEXCOORD_0":2
					},
					"indices":3,
					"material":0
				}
			]
		},
		{
			"name":"Scene",
			"primitives":[
				{
					"attributes":{
						"POSITION":4,
						"NORMAL":5,
						"TEXCOORD_0":6
					},
					"indices":7,
					"material":0
				}
			]
		},
		{
			"name":"Scene.003",
			"primitives":[
				{
					"attributes":{
						"POSITION":8,
						"NORMAL":9,
						"TEXCOORD_0":10
					},
					"indices":11,
					"material":1
				}
			]
		},
		{
			"name":"Scene.002",
			"primitives":[
				{
					"attributes":{
						"POSITION":12,
						"NORMAL":13,
						"TEXCOORD_0":14
					},
					"indices":15,
					"material":1
				}
			]
		},
		{
			"name":"Scene.005",
			"primitives":[
				{
					"attributes":{
						"POSITION":16,
						"NORMAL":17,
						"TEXCOORD_0":18
					},
					"indices":19,
					"material":2
				}
			]
		},
		{
			"name":"Scene.006",
			"primitives":[
				{
					"attributes":{
						"POSITION":20,
						"NORMAL":21,
						"TEXCOORD_0":22
					},
					"indices":23,
					"material":2
				}
			]
		},
		{
			"name":"Scene.004",
			"primitives":[
				{
					"attributes":{
						"POSITION":24,
						"NORMAL":25,
						"TEXCOORD_0":26
					},
					"indices":27,
					"material":2
				}
			]
		},
		{
			"name":"Scene.007",
			"primitives":[
				{
					"attributes":{
						"POSITION":28,
						"NORMAL":29,
						"TEXCOORD_0":30
					},
					"indices":31,
					"material":2
				}
			]
		},
		{
			"name":"Cube",
			"primitives":[
				{
					"attributes":{
						"POSITION":32,
						"NORMAL":33,
						"TEXCOORD_0":34
					},
					"indices":35,
					"material":3
				}
			]
		}
	],
	"textures":[
		{
			"sampler":0,
			"source":0
		},
		{
			"sampler":0,
			"source":0
		},
		{
			"sampler":0,
			"source":1
		},
		{
			"sampler":0,
			"source":2
		}
	],
	"images":[
		{
			"mimeType":"image/png",
			"name":"Texture",
			"uri":"Texture.png"
		},
		{
			"mimeType":"image/png",
			"name":"Textures_Guns",
			"uri":"Textures_Guns.png"
		},
		{
			"mimeType":"image/png",
			"name":"grayscale",
			"uri":"grayscale.png"
		}
	],
	"accessors":[
		{
			"bufferView":0,
			"componentType":5126,
			"count":160,
			"max":[
				0.011920662596821785,
				0.07604402303695679,
				0.07962751388549805
			],
			"min":[
				-0.011920688673853874,
				-0.08151230216026306,
				-0.04273265600204468
			],
			"type":"VEC3"
		},
		{
			"bufferView":1,
			"componentType":5126,
			"count":160,
			"type":"VEC3"
		},
		{
			"bufferView":2,
			"componentType":5126,
			"count":160,
			"type":"VEC2"
		},
		{
			"bufferView":3,
			"componentType":5123,
			"count":798,
			"type":"SCALAR"
		},
		{
			"bufferView":4,
			"componentType":5126,
			"count":1266,
			"max":[
				0.03563905879855156,
				0.07219293713569641,
				0.3955979645252228
			],
			"min":[
				-0.030595829710364342,
				-0.14081089198589325,
				-0.46273481845855713
			],
			"type":"VEC3"
		},
		{
			"bufferView":5,
			"componentType":5126,
			"count":1266,
			"type":"VEC3"
		},
		{
			"bufferView":6,
			"componentType":5126,
			"count":1266,
			"type":"VEC2"
		},
		{
			"bufferView":7,
			"componentType":5123,
			"count":3792,
			"type":"SCALAR"
		},
		{
			"bufferView":8,
			"componentType":5126,
			"count":702,
			"max":[
				0.04006008803844452,
				0.13450810313224792,
				0.029974499717354774
			],
			"min":[
				-0.038028743118047714,
				0.04938771203160286,
				-0.30270475149154663
			],
			"type":"VEC3"
		},
		{
			"bufferView":9,
			"componentType":5126,
			"count":702,
			"type":"VEC3"
		},
		{
			"bufferView":10,
			"componentType":5126,
			"count":702,
			"type":"VEC2"
		},
		{
			"bufferView":11,
			"componentType":5123,
			"count":1908,
			"type":"SCALAR"
		},
		{
			"bufferView":12,
			"componentType":5126,
			"count":911,
			"max":[
				0.061942361295223236,
				0.055540043860673904,
				0.31431424617767334
			],
			"min":[
				-0.023858966305851936,
				-0.08600125461816788,
				-0.5716891288757324
			],
			"type":"VEC3"
		},
		{
			"bufferView":13,
			"componentType":5126,
			"count":911,
			"type":"VEC3"
		},
		{
			"bufferView":14,
			"componentType":5126,
			"count":911,
			"type":"VEC2"
		},
		{
			"bufferView":15,
			"componentType":5123,
			"count":3216,
			"type":"SCALAR"
		},
		{
			"bufferView":16,
			"componentType":5126,
			"count":608,
			"max":[
				0.057501278817653656,
				0.06538540124893188,
				0.1845867782831192
			],
			"min":[
				-0.057501278817653656,
				-0.04961715638637543,
				-0.8208458423614502
			],
			"type":"VEC3"
		},
		{
			"bufferView":17,
			"componentType":5126,
			"count":608,
			"type":"VEC3"
		},
		{
			"bufferView":18,
			"componentType":5126,
			"count":608,
			"type":"VEC2"
		},
		{
			"bufferView":19,
			"componentType":5123,
			"count":1092,
			"type":"SCALAR"
		},
		{
			"bufferView":20,
			"componentType":5126,
			"count":92,
			"max":[
				0.0017816782929003239,
				-0.01590673439204693,
				-0.14713004231452942
			],
			"min":[
				-0.0017816782929003239,
				-0.06955497711896896,
				-0.1658233106136322
			],
			"type":"VEC3"
		},
		{
			"bufferView":21,
			"componentType":5126,
			"count":92,
			"type":"VEC3"
		},
		{
			"bufferView":22,
			"componentType":5126,
			"count":92,
			"type":"VEC2"
		},
		{
			"bufferView":23,
			"componentType":5123,
			"count":174,
			"type":"SCALAR"
		},
		{
			"bufferView":24,
			"componentType":5126,
			"count":1218,
			"max":[
				0.07711672782897949,
				0.14091163873672485,
				0.8692801594734192
			],
			"min":[
				-0.07711672782897949,
				-0.19625598192214966,
				-0.401419460773468
			],
			"type":"VEC3"
		},
		{
			"bufferView":25,
			"componentType":5126,
			"count":1218,
			"type":"VEC3"
		},
		{
			"bufferView":26,
			"componentType":5126,
			"count":1218,
			"type":"VEC2"
		},
		{
			"bufferView":27,
			"componentType":5123,
			"count":2430,
			"type":"SCALAR"
		},
		{
			"bufferView":28,
			"componentType":5126,
			"count":608,
			"max":[
				0.05750127136707306,
				0.0573832131922245,
				0.6861724853515625
			],
			"min":[
				-0.057501278817653656,
				-0.057619333267211914,
				-0.3192601501941681
			],
			"type":"VEC3"
		},
		{
			"bufferView":29,
			"componentType":5126,
			"count":608,
			"type":"VEC3"
		},
		{
			"bufferView":30,
			"componentType":5126,
			"count":608,
			"type":"VEC2"
		},
		{
			"bufferView":31,
			"componentType":5123,
			"count":1092,
			"type":"SCALAR"
		},
		{
			"bufferView":32,
			"componentType":5126,
			"count":24,
			"max":[
				0.020949356257915497,
				0.020949356257915497,
				0.020949356257915497
			],
			"min":[
				-0.020949356257915497,
				-0.020949356257915497,
				-0.020949356257915497
			],
			"type":"VEC3"
		},
		{
			"bufferView":33,
			"componentType":5126,
			"count":24,
			"type":"VEC3"
		},
		{
			"bufferView":34,
			"componentType":5126,
			"count":24,
			"type":"VEC2"
		},
		{
			"bufferView":35,
			"componentType":5123,
			"count":36,
			"type":"SCALAR"
		},
		{
			"bufferView":36,
			"componentType":5126,
			"count":2,
			"max":[
				2
			],
			"min":[
				0
			],
			"type":"SCALAR"
		},
		{
			"bufferView":37,
			"componentType":5126,
			"count":2,
			"type":"VEC3"
		},
		{
			"bufferView":38,
			"componentType":5126,
			"count":121,
			"max":[
				2
			],
			"min":[
				0
			],
			"type":"SCALAR"
		},
		{
			"bufferView":39,
			"componentType":5126,
			"count":121,
			"type":"VEC4"
		},
		{
			"bufferView":40,
			"componentType":5126,
			"count":2,
			"type":"VEC3"
		},
		{
			"bufferView":41,
			"componentType":5126,
			"count":82,
			"max":[
				1.35
			],
			"min":[
				0
			],
			"type":"SCALAR"
		},
		{
			"bufferView":42,
			"componentType":5126,
			"count":82,
			"type":"VEC3"
		},
		{
			"bufferView":43,
			"componentType":5126,
			"count":2,
			"max":[
				1.35
			],
			"min":[
				0
			],
			"type":"SCALAR"
		},
		{
			"bufferView":44,
			"componentType":5126,
			"count":2,
			"type":"VEC4"
		},
		{
			"bufferView":45,
			"componentType":5126,
			"count":2,
			"type":"VEC3"
		},
		{
			"bufferView":46,
			"componentType":5126,
			"count":2,
			"max":[
				2.7333333333333334
			],
			"min":[
				0
			],
			"type":"SCALAR"
		},
		{
			"bufferView":47,
			"componentType":5126,
			"count":2,
			"type":"VEC3"
		},
		{
			"bufferView":48,
			"componentType":5126,
			"count":165,
			"max":[
				2.7333333333333334
			],
			"min":[
				0
			],
			"type":"SCALAR"
		},
		{
			"bufferView":49,
			"componentType":5126,
			"count":165,
			"type":"VEC4"
		},
		{
			"bufferView":50,
			"componentType":5126,
			"count":2,
			"type":"VEC3"
		},
		{
			"bufferView":51,
			"componentType":5126,
			"count":2,
			"max":[
				0.5833333333333334
			],
			"min":[
				0
			],
			"type":"SCALAR"
		},
		{
			"bufferView":52,
			"componentType":5126,
			"count":2,
			"type":"VEC3"
		},
		{
			"bufferView":53,
			"componentType":5126,
			"count":2,
			"type":"VEC4"
		},
		{
			"bufferView":54,
			"componentType":5126,
			"count":2,
			"type":"VEC3"
		},
		{
			"bufferView":55,
			"componentType":5126,
			"count":2,
			"max":[
				2.1666666666666665
			],
			"min":[
				0
			],
			"type":"SCALAR"
		},
		{
			"bufferView":56,
			"componentType":5126,
			"count":2,
			"type":"VEC3"
		},
		{
			"bufferView":57,
			"componentType":5126,
			"count":131,
			"max":[
				2.1666666666666665
			],
			"min":[
				0
			],
			"type":"SCALAR"
		},
		{
			"bufferView":58,
			"componentType":5126,
			"count":131,
			"type":"VEC4"
		},
		{
			"bufferView":59,
			"componentType":5126,
			"count":69,
			"max":[
				1.1333333333333333
			],
			"min":[
				0
			],
			"type":"SCALAR"
		},
		{
			"bufferView":60,
			"componentType":5126,
			"count":69,
			"type":"VEC3"
		},
		{
			"bufferView":61,
			"componentType":5126,
			"count":2,
			"max":[
				1.1333333333333333
			],
			"min":[
				0
			],
			"type":"SCALAR"
		},
		{
			"bufferView":62,
			"componentType":5126,
			"count":2,
			"type":"VEC4"
		},
		{
			"bufferView":63,
			"componentType":5126,
			"count":2,
			"max":[
				2.4833333333333334
			],
			"min":[
				0
			],
			"type":"SCALAR"
		},
		{
			"bufferView":64,
			"componentType":5126,
			"count":2,
			"type":"VEC3"
		},
		{
			"bufferView":65,
			"componentType":5126,
			"count":2,
			"type":"VEC4"
		}
	],
	"bufferViews":[
		{
			"buffer":0,
			"byteLength":1920,
			"byteOffset":0,
			"target":34962
		},
		{
			"buffer":0,
			"byteLength":1920,
			"byteOffset":1920,
			"target":34962
		},
		{
			"buffer":0,
			"byteLength":1280,
			"byteOffset":3840,
			"target":34962
		},
		{
			"buffer":0,
			"byteLength":1596,
			"byteOffset":5120,
			"target":34963
		},
		{
			"buffer":0,
			"byteLength":15192,
			"byteOffset":6716,
			"target":34962
		},
		{
			"buffer":0,
			"byteLength":15192,
			"byteOffset":21908,
			"target":34962
		},
		{
			"buffer":0,
			"byteLength":10128,
			"byteOffset":37100,
			"target":34962
		},
		{
			"buffer":0,
			"byteLength":7584,
			"byteOffset":47228,
			"target":34963
		},
		{
			"buffer":0,
			"byteLength":8424,
			"byteOffset":54812,
			"target":34962
		},
		{
			"buffer":0,
			"byteLength":8424,
			"byteOffset":63236,
			"target":34962
		},
		{
			"buffer":0,
			"byteLength":5616,
			"byteOffset":71660,
			"target":34962
		},
		{
			"buffer":0,
			"byteLength":3816,
			"byteOffset":77276,
			"target":34963
		},
		{
			"buffer":0,
			"byteLength":10932,
			"byteOffset":81092,
			"target":34962
		},
		{
			"buffer":0,
			"byteLength":10932,
			"byteOffset":92024,
			"target":34962
		},
		{
			"buffer":0,
			"byteLength":7288,
			"byteOffset":102956,
			"target":34962
		},
		{
			"buffer":0,
			"byteLength":6432,
			"byteOffset":110244,
			"target":34963
		},
		{
			"buffer":0,
			"byteLength":7296,
			"byteOffset":116676,
			"target":34962
		},
		{
			"buffer":0,
			"byteLength":7296,
			"byteOffset":123972,
			"target":34962
		},
		{
			"buffer":0,
			"byteLength":4864,
			"byteOffset":131268,
			"target":34962
		},
		{
			"buffer":0,
			"byteLength":2184,
			"byteOffset":136132,
			"target":34963
		},
		{
			"buffer":0,
			"byteLength":1104,
			"byteOffset":138316,
			"target":34962
		},
		{
			"buffer":0,
			"byteLength":1104,
			"byteOffset":139420,
			"target":34962
		},
		{
			"buffer":0,
			"byteLength":736,
			"byteOffset":140524,
			"target":34962
		},
		{
			"buffer":0,
			"byteLength":348,
			"byteOffset":141260,
			"target":34963
		},
		{
			"buffer":0,
			"byteLength":14616,
			"byteOffset":141608,
			"target":34962
		},
		{
			"buffer":0,
			"byteLength":14616,
			"byteOffset":156224,
			"target":34962
		},
		{
			"buffer":0,
			"byteLength":9744,
			"byteOffset":170840,
			"target":34962
		},
		{
			"buffer":0,
			"byteLength":4860,
			"byteOffset":180584,
			"target":34963
		},
		{
			"buffer":0,
			"byteLength":7296,
			"byteOffset":185444,
			"target":34962
		},
		{
			"buffer":0,
			"byteLength":7296,
			"byteOffset":192740,
			"target":34962
		},
		{
			"buffer":0,
			"byteLength":4864,
			"byteOffset":200036,
			"target":34962
		},
		{
			"buffer":0,
			"byteLength":2184,
			"byteOffset":204900,
			"target":34963
		},
		{
			"buffer":0,
			"byteLength":288,
			"byteOffset":207084,
			"target":34962
		},
		{
			"buffer":0,
			"byteLength":288,
			"byteOffset":207372,
			"target":34962
		},
		{
			"buffer":0,
			"byteLength":192,
			"byteOffset":207660,
			"target":34962
		},
		{
			"buffer":0,
			"byteLength":72,
			"byteOffset":207852,
			"target":34963
		},
		{
			"buffer":0,
			"byteLength":8,
			"byteOffset":207924
		},
		{
			"buffer":0,
			"byteLength":24,
			"byteOffset":207932
		},
		{
			"buffer":0,
			"byteLength":484,
			"byteOffset":207956
		},
		{
			"buffer":0,
			"byteLength":1936,
			"byteOffset":208440
		},
		{
			"buffer":0,
			"byteLength":24,
			"byteOffset":210376
		},
		{
			"buffer":0,
			"byteLength":328,
			"byteOffset":210400
		},
		{
			"buffer":0,
			"byteLength":984,
			"byteOffset":210728
		},
		{
			"buffer":0,
			"byteLength":8,
			"byteOffset":211712
		},
		{
			"buffer":0,
			"byteLength":32,
			"byteOffset":211720
		},
		{
			"buffer":0,
			"byteLength":24,
			"byteOffset":211752
		},
		{
			"buffer":0,
			"byteLength":8,
			"byteOffset":211776
		},
		{
			"buffer":0,
			"byteLength":24,
			"byteOffset":211784
		},
		{
			"buffer":0,
			"byteLength":660,
			"byteOffset":211808
		},
		{
			"buffer":0,
			"byteLength":2640,
			"byteOffset":212468
		},
		{
			"buffer":0,
			"byteLength":24,
			"byteOffset":215108
		},
		{
			"buffer":0,
			"byteLength":8,
			"byteOffset":215132
		},
		{
			"buffer":0,
			"byteLength":24,
			"byteOffset":215140
		},
		{
			"buffer":0,
			"byteLength":32,
			"byteOffset":215164
		},
		{
			"buffer":0,
			"byteLength":24,
			"byteOffset":215196
		},
		{
			"buffer":0,
			"byteLength":8,
			"byteOffset":215220
		},
		{
			"buffer":0,
			"byteLength":24,
			"byteOffset":215228
		},
		{
			"buffer":0,
			"byteLength":524,
			"byteOffset":215252
		},
		{
			"buffer":0,
			"byteLength":2096,
			"byteOffset":215776
		},
		{
			"buffer":0,
			"byteLength":276,
			"byteOffset":217872
		},
		{
			"buffer":0,
			"byteLength":828,
			"byteOffset":218148
		},
		{
			"buffer":0,
			"byteLength":8,
			"byteOffset":218976
		},
		{
			"buffer":0,
			"byteLength":32,
			"byteOffset":218984
		},
		{
			"buffer":0,
			"byteLength":8,
			"byteOffset":219016
		},
		{
			"buffer":0,
			"byteLength":24,
			"byteOffset":219024
		},
		{
			"buffer":0,
			"byteLength":32,
			"byteOffset":219048
		}
	],
	"samplers":[
		{
			"magFilter":9729,
			"minFilter":9987
		}
	],
	"buffers":[
		{
			"byteLength":219080,
			"uri":"weapons.bin"
		}
	]
}
